<!-- icon666.com - MILLIONS vector ICONS FREE --><svg id="Capa_1" enable-background="new 0 0 512 512" viewBox="0 0 512 512" xmlns="http://www.w3.org/2000/svg"><g><path d="m356 116h-20v-20c0-11.046-8.954-20-20-20s-20 8.954-20 20v40c0 11.046 8.954 20 20 20h40c11.046 0 20-8.954 20-20s-8.954-20-20-20z"></path><path d="m356 512c55.141 0 100-44.86 100-100v-312c0-55.14-44.859-100-100-100h-200c-55.14 0-100 44.86-100 100v312c0 55.14 44.86 100 100 100zm-260-100v-312c0-33.084 26.916-60 60-60h200c33.084 0 60 26.916 60 60v312c0 33.084-26.916 60-60 60h-200c-33.084 0-60-26.916-60-60z"></path><path d="m236 236h120c11.046 0 20-8.954 20-20s-8.954-20-20-20h-120c-11.046 0-20 8.954-20 20s8.954 20 20 20z"></path><path d="m236 316h120c11.046 0 20-8.954 20-20s-8.954-20-20-20h-120c-11.046 0-20 8.954-20 20s8.954 20 20 20z"></path><path d="m236 396h120c11.046 0 20-8.954 20-20s-8.954-20-20-20h-120c-11.046 0-20 8.954-20 20s8.954 20 20 20z"></path><circle cx="156" cy="216" r="20"></circle><circle cx="156" cy="296" r="20"></circle><circle cx="156" cy="376" r="20"></circle></g></svg>