<svg width="1280" height="1280" xmlns="http://www.w3.org/2000/svg">
 <title>Ресурс 1</title>

 <g>
  <title>Layer 1</title>
  <g stroke="null" data-name="Слой 2" id="Слой_2">
   <g stroke="null" data-name="Слой 1" id="Слой_1-2">
    <path stroke="null" id="svg_1" d="m664.288,643.37654l0,-90.4346l22.08989,0l13.29225,61.6556l13.11619,-61.6556l22.18309,0l0,90.4346l-13.72203,0l0,-71.21845l-14.54536,71.21845l-14.22431,0l-14.49875,-71.22377l0,71.22377l-13.69097,0zm151.33591,0l-16.0729,0l-6.32767,-20.6104l-29.30819,0l-6.0118,20.6104l-15.7415,0l28.52112,-90.43992l15.65865,0l29.2823,90.43992zm-27.16445,-35.80346l-10.15431,-33.5684l-9.83844,33.5684l19.99274,0zm44.69241,-54.60986l50.61618,0l0,75.19897l6.43641,0l0,34.95733l-12.36019,0l0,-19.74299l-46.04908,0l0,19.74299l-12.26698,0l0,-34.95733l6.1775,0c3.04474,-7.74287 5.07974,-16.69906 6.0118,-26.95903c0.92688,-10.17482 1.43952,-23.13282 1.43952,-38.69839l0,-9.57881l-0.00518,0.03725zm14.04826,15.1292c0,27.48054 -1.94698,47.56943 -6.0118,60.09106l27.84796,0l0,-60.11235l-21.84134,0l0.00518,0.02129zm53.07061,-15.1292l13.88256,0l0,60.15492l29.62406,-60.17621l14.72659,0l0,90.4346l-13.79971,0l0,-59.06932l-29.62406,59.06932l-14.81462,0l0.00518,-90.41332z"/>
    <path stroke="null" id="svg_2" d="m321.49606,643.98852l0,-4.51801l333.06225,0l0,4.69362c-21.83616,1.06431 -23.44138,2.52242 -45.11183,6.52423c-20.31379,3.19294 -66.86514,31.65264 -69.82703,62.69863l-10.15948,0c-0.51781,-32.52006 -19.29888,-59.56423 -56.62281,-59.56423c-35.21126,0 -66.02111,24.86765 -66.18681,59.56423l-9.2326,0c-0.42461,-33.05221 -38.76345,-69.39847 -75.92168,-69.39847z"/>
    <path stroke="null" id="svg_3" d="m395.81252,604.41739l-18.79142,-0.08514l-20.39664,11.47861l-25.47638,0l-9.65203,9.91407l0,4.86923l129.58778,0l0,-6.34862l-3.13277,-0.70777l0,-5.37478l-19.21085,-3.19294l-8.89084,-10.52605l-12.52589,0l-5.49917,-9.90875l38.50972,0l-10.66694,-7.85462l0,-3.4803l13.28707,0l16.84444,23.13282l12.18931,0.17561l0,-8.43467l-7.87075,0l0,-3.56545l61.20027,0l6.60211,6.08787l-4.99689,6.97657c-11.08637,-10.11097 -32.57559,-15.84761 -44.69241,6.95528l-22.26594,0.17561l-17.6833,-16.28398l-15.7415,0l0,5.9974l5.49917,9.30741l10.91549,0.17561l-0.93206,-7.39165c7.53417,2.69803 10.49606,9.30209 11.85273,16.86935l34.81772,0.17561c0,-25.06455 34.69344,-25.33063 34.69344,0.53216l4.56711,0.17561l13.29225,-20.52526l0,-3.8262l-20.48467,-24.43661l-63.75309,0l-3.13277,-9.30741l-39.78354,0l0.09321,5.75261l2.11785,0l4.1425,15.21966l-30.98073,-0.09047l0,5.74196l6.34838,11.6489l0,-0.02129zm78.62984,-20.75409l45.45359,0l0,4.86923l-45.45359,0l0,-4.86923zm31.24999,23.85656a14.82497,15.23563 0 1 0 14.82497,15.23563a14.8198,15.23031 0 0 0 -14.82497,-15.25691l0,0.02129zm7.68952,15.11855a7.59631,7.80673 0 1 1 -7.59631,-7.82802a7.59631,7.80673 0 0 1 7.59113,7.80673l0.00518,0.02129z"/>
    <path stroke="null" id="svg_4" d="m415.36513,528.76608c92.17064,-165.56972 316.2178,-172.70061 401.30477,0l-56.30694,0c-44.18495,-65.65742 -87.78995,-98.61384 -172.66979,-99.30564s-156.3328,54.43424 -180.11594,140.32956l-13.28707,0c29.1166,-120.79943 131.5244,-203.48584 257.22341,-203.81578c132.04221,2.78318 208.81311,88.43902 241.98937,162.79186l-51.29452,0c-81.50888,-185.39785 -338.31287,-187.57437 -426.84329,0z"/>
    <path stroke="null" id="svg_5" d="m338.3405,632.15337c0.76118,4.11889 5.93931,5.9974 11.21582,5.82179c5.2558,0.17029 10.47535,-1.70822 11.21582,-5.82179l-22.43164,0z"/>
    <path stroke="null" id="svg_6" d="m411.81293,632.15337c0.74047,4.11357 5.96002,5.99208 11.21582,5.82179c5.2558,0.17029 10.47535,-1.70822 11.21582,-5.82179l-22.43164,0z"/>
    <path stroke="null" id="svg_7" d="m904.27344,664.25302c-15.38421,94.41513 -95.27752,166.36263 -191.50264,166.36263c-75.6576,0 -141.10394,-44.46696 -173.15136,-109.35275l-142.2017,0c32.80343,111.54523 133.59565,192.76289 252.82201,192.76289c138.77378,0 252.53203,-109.99666 263.25593,-249.77277l-9.22224,0zm-441.00546,65.55631l23.41031,0a232.79819,239.24673 0 0 0 73.75723,85.93256l-31.16196,0a240.38415,247.04281 0 0 1 -66.00557,-85.93256zm191.69941,139.18542a238.02292,244.61618 0 0 1 -103.21559,-36.71877l27.81689,-4.28918a230.2402,236.61788 0 0 0 90.54989,28.95993l-15.1512,12.04801zm25.69904,0.75566c-2.12303,0 -5.27133,0.50023 -7.38401,0.44701l9.73488,-12.34602c3.10688,0.12772 7.21831,-0.34058 10.35625,-0.34058c21.28728,0 40.86059,-2.42131 60.43909,-7.94509l6.13608,6.52423c-25.10873,9.19034 -51.12882,13.66577 -79.28747,13.66577l0.00518,-0.00532zm93.7914,-19.51416l-6.82995,-5.05016a231.08941,237.49061 0 0 0 62.72782,-33.98881l2.97224,1.72419a239.50904,246.14347 0 0 1 -58.87012,37.31478z"/>
   </g>
  </g>
 </g>
</svg>