<svg xmlns="http://www.w3.org/2000/svg" version="1.1" xmlns:xlink="http://www.w3.org/1999/xlink" xmlns:svgjs="http://svgjs.dev/svgjs" width="2000" height="1500" viewBox="0 0 2000 1500"><rect width="2000" height="1500" fill="#97978d"></rect><g transform="matrix(0.49407114624505927,0,0,0.49407114624505927,506.8023067452861,250.4048582995951)"><svg viewBox="0 0 244 247" data-background-color="#97978d" preserveAspectRatio="xMidYMid meet" height="2024" width="2000" xmlns="http://www.w3.org/2000/svg" xmlns:xlink="http://www.w3.org/1999/xlink"><g id="tight-bounds" transform="matrix(1,0,0,1,-0.21567999999999188,-0.09999999999999432)"><svg viewBox="0 0 244.43135999999998 247.2" height="247.2" width="244.43135999999998"><g><svg></svg></g><g><svg viewBox="0 0 244.43135999999998 247.2" height="247.2" width="244.43135999999998"><g transform="matrix(1,0,0,1,0,84.24427895115784)"><svg viewBox="0 0 244.43135999999998 78.71144209768433" height="78.71144209768433" width="244.43135999999998"><g><svg viewBox="0 0 311.27115905626135 100.23510000000002" height="78.71144209768433" width="244.43135999999998"><g><svg viewBox="0 0 311.27115905626135 100.23510000000002" height="100.23510000000002" width="311.27115905626135"><g id="textblocktransform"><svg viewBox="0 0 311.27115905626135 100.23510000000002" height="100.23510000000002" width="311.27115905626135" id="textblock"><g><svg viewBox="0 0 311.27115905626135 100.23510000000002" height="100.23510000000002" width="311.27115905626135"><g><svg><g></g><g></g></svg></g><g><svg><g><svg></svg></g><g></g></svg></g><g id="text-0"><svg viewBox="0 0 311.27115905626135 100.23510000000002" height="100.23510000000002" width="311.27115905626135"><g transform="matrix(1,0,0,1,0,25.85068661538462)"><svg width="244.43135999999998" viewBox="1.8 -40.85 207.98 41.300000000000004" height="48.533726769230775" data-palette-color="#c8c8c8"><path d="M12.7 0L8.4 0 1.8-40.5 6.5-40.5 10.85-11.4 16.3-40.35 20.3-40.35 25.8-11.25 30.05-40.5 34.65-40.5 28.15 0 24.05 0 18.4-30 12.7 0ZM45.45 0L39.9 0 39.9-40.5 45.45-40.5 45.45 0ZM68 0L52 0 52-40.5 57.65-40.5 57.65-4.05 68-4.05 68 0ZM81.09 0L71.84 0 71.84-40.5 80.64-40.5Q85.14-40.5 87.77-39.13 90.39-37.75 91.52-35 92.64-32.25 92.64-28.15L92.64-28.15 92.64-13.25Q92.64-8.95 91.52-6 90.39-3.05 87.87-1.53 85.34 0 81.09 0L81.09 0ZM77.49-36.3L77.49-4.05 80.69-4.05Q83.79-4.05 85.09-5.25 86.39-6.45 86.67-8.75 86.94-11.05 86.94-14.3L86.94-14.3 86.94-27.45Q86.94-30.6 86.54-32.55 86.14-34.5 84.79-35.4 83.44-36.3 80.54-36.3L80.54-36.3 77.49-36.3ZM108.34 0.45L108.34 0.45Q104.04 0.45 101.67-1.35 99.29-3.15 98.37-6.2 97.44-9.25 97.44-13L97.44-13 97.44-27.3Q97.44-31.4 98.37-34.45 99.29-37.5 101.67-39.18 104.04-40.85 108.34-40.85L108.34-40.85Q112.14-40.85 114.37-39.45 116.59-38.05 117.57-35.45 118.54-32.85 118.54-29.2L118.54-29.2 118.54-26 113.19-26 113.19-28.85Q113.19-31.1 112.97-32.83 112.74-34.55 111.74-35.5 110.74-36.45 108.39-36.45L108.39-36.45Q105.99-36.45 104.89-35.43 103.79-34.4 103.47-32.52 103.14-30.65 103.14-28.15L103.14-28.15 103.14-12.1Q103.14-9.05 103.64-7.28 104.14-5.5 105.29-4.75 106.44-4 108.39-4L108.39-4Q110.69-4 111.69-5.03 112.69-6.05 112.94-7.85 113.19-9.65 113.19-12.05L113.19-12.05 113.19-15.05 118.54-15.05 118.54-12.05Q118.54-8.35 117.64-5.53 116.74-2.7 114.54-1.13 112.34 0.45 108.34 0.45ZM129.59 0L123.94 0 123.94-40.5 129.59-40.5 129.59-23 139.99-23 139.99-40.5 145.64-40.5 145.64 0 139.99 0 139.99-18.95 129.59-18.95 129.59 0ZM155.09 0L149.79 0 158.39-40.5 163.84-40.5 172.49 0 167.14 0 165.29-10.2 157.04-10.2 155.09 0ZM161.14-32.5L157.79-14.25 164.54-14.25 161.14-32.5ZM182.43 0L176.88 0 176.88-40.5 182.43-40.5 182.43 0ZM194.63 0L188.98 0 188.98-40.5 197.13-40.5Q201.18-40.5 203.83-39.43 206.48-38.35 207.76-35.98 209.03-33.6 209.03-29.75L209.03-29.75Q209.03-27.4 208.53-25.48 208.03-23.55 206.93-22.23 205.83-20.9 204.03-20.3L204.03-20.3 209.78 0 204.33 0 199.03-19 194.63-19 194.63 0ZM194.63-36.45L194.63-23.05 196.78-23.05Q199.18-23.05 200.68-23.65 202.18-24.25 202.88-25.7 203.58-27.15 203.58-29.75L203.58-29.75Q203.58-33.3 202.28-34.88 200.98-36.45 197.13-36.45L197.13-36.45 194.63-36.45Z" opacity="1" transform="matrix(1,0,0,1,0,0)" fill="#c8c8c8" class="undefined-text-0" data-fill-palette-color="primary"></path></svg></g><g><svg xmlns="http://www.w3.org/2000/svg" xmlns:xlink="http://www.w3.org/1999/xlink" version="1.1" x="260.20795999999996" y="0" viewBox="7.643000000000002 3.8390000000000004 82.806 162.545" enable-background="new 0 0 100 170" xml:space="preserve" height="100.23510000000002" width="51.063199056261354" class="icon-g$-0" data-fill-palette-color="accent" id="g$-0"><path d="M78.961 77.631L90.449 53.97l-4.996-19.39c0.842-0.341 1.438-1.164 1.438-2.127v-7.939c0-1.268-1.027-2.297-2.299-2.297-0.873 0-1.623 0.494-2.014 1.212l-0.123-0.479L82.4 23.86c-0.062 0.208-0.105 0.425-0.105 0.654v1.107l-0.205 3.432V8.852c0-2.769-2.246-5.013-5.014-5.013-2.77 0-5.014 2.245-5.014 5.013v39.267c0 2.768 2.244 5.013 5.014 5.013 2.768 0 5.014-2.245 5.014-5.013V37.624l4.1 15.879L74.607 77.356H16.295c-3.229 0-5.849 2.619-5.849 5.849s2.619 5.85 5.849 5.85h22.506v15.875h3.341v41.354h-3.341v2.826c-1.878 0.271-3.535 1.223-4.707 2.604H21.053c-1.396-1.645-3.475-2.691-5.802-2.691-4.2 0-7.608 3.408-7.608 7.605v5.76l1.758-0.518c0.696 2.594 3.038 4.514 5.85 4.514 3.357 0 6.079-2.727 6.079-6.084 0-0.646-0.128-1.26-0.316-1.844l1.847-0.541v-1.287c0-0.539-0.058-1.066-0.165-1.57h9.756c-0.107 0.504-0.165 1.031-0.165 1.57v4.277h1.59c0.308 3.07 2.868 5.479 6.02 5.479 3.151 0 5.71-2.408 6.019-5.479h1.589v-4.277c0-0.539-0.058-1.066-0.165-1.57h17.278c-0.107 0.504-0.166 1.031-0.166 1.57v1.287l1.844 0.541c-0.186 0.584-0.314 1.197-0.314 1.844 0 3.357 2.723 6.084 6.078 6.084 2.812 0 5.156-1.92 5.854-4.514l1.756 0.518v-5.76c0-4.197-3.406-7.605-7.609-7.605-2.324 0-4.404 1.047-5.801 2.691H54.674v-5.43h-3.342V104.93h3.342V89.055h22.609c3.229 0 5.848-2.62 5.848-5.85C83.131 80.563 81.369 78.356 78.961 77.631z" fill="#636365" data-fill-palette-color="accent"></path></svg></g></svg></g></svg></g></svg></g></svg></g><g></g></svg></g></svg></g><path d="M0 78.244L0 1 244.431 1 244.431 78.244 240.994 78.244 240.994 4.437 3.437 4.437 3.437 78.244 0 78.244M0 168.956L0 246.2 244.431 246.2 244.431 168.956 240.994 168.956 240.994 242.763 3.437 242.763 3.437 168.956 0 168.956" fill="#c8c8c8" stroke="transparent" data-fill-palette-color="primary"></path></svg></g><defs></defs></svg><rect width="244.43135999999998" height="247.2" fill="none" stroke="none" visibility="hidden"></rect></g></svg></g></svg>