<?xml version="1.0" encoding="UTF-8"?>
<svg xmlns="http://www.w3.org/2000/svg" xmlns:xlink="http://www.w3.org/1999/xlink" width="200px" height="202px" viewBox="0 0 200 202" version="1.1">
<defs>
<clipPath id="clip1">
  <path d="M 0.175781 85.496094 L 157.3125 85.496094 L 157.3125 116.664062 L 0.175781 116.664062 Z M 0.175781 85.496094 "/>
</clipPath>
<clipPath id="clip2">
  <path d="M 167.464844 68.894531 L 200 68.894531 L 200 133.265625 L 167.464844 133.265625 Z M 167.464844 68.894531 "/>
</clipPath>
<clipPath id="clip3">
  <path d="M 0.175781 0.0820312 L 200 0.0820312 L 200 202 L 0.175781 202 Z M 0.175781 0.0820312 "/>
</clipPath>
</defs>
<g id="surface1">
<g clip-path="url(#clip1)" clip-rule="nonzero">
<path style=" stroke:none;fill-rule:nonzero;fill:rgb(100%,100%,100%);fill-opacity:1;" d="M 8.277344 116.328125 L 5.027344 116.328125 L 0.0351562 85.761719 L 3.589844 85.761719 L 6.878906 107.722656 L 11 85.875 L 14.027344 85.875 L 18.183594 107.835938 L 21.398438 85.761719 L 24.878906 85.761719 L 19.960938 116.328125 L 16.863281 116.328125 L 12.589844 93.6875 Z M 33.042969 116.328125 L 28.847656 116.328125 L 28.847656 85.761719 L 33.042969 85.761719 Z M 50.097656 116.328125 L 37.996094 116.328125 L 37.996094 85.761719 L 42.269531 85.761719 L 42.269531 113.269531 L 50.097656 113.269531 Z M 59.996094 116.328125 L 53 116.328125 L 53 85.761719 L 59.652344 85.761719 C 61.921875 85.761719 63.71875 86.105469 65.046875 86.796875 C 66.367188 87.488281 67.3125 88.527344 67.882812 89.914062 C 68.445312 91.296875 68.726562 93.019531 68.726562 95.082031 L 68.726562 106.328125 C 68.726562 108.492188 68.445312 110.3125 67.882812 111.796875 C 67.3125 113.28125 66.390625 114.40625 65.121094 115.171875 C 63.847656 115.941406 62.136719 116.328125 59.996094 116.328125 Z M 57.273438 88.929688 L 57.273438 113.269531 L 59.691406 113.269531 C 61.253906 113.269531 62.363281 112.96875 63.019531 112.363281 C 63.675781 111.761719 64.074219 110.878906 64.214844 109.722656 C 64.351562 108.566406 64.417969 107.167969 64.417969 105.535156 L 64.417969 95.609375 C 64.417969 94.027344 64.316406 92.742188 64.117188 91.761719 C 63.914062 90.78125 63.472656 90.0625 62.792969 89.609375 C 62.113281 89.15625 61.039062 88.929688 59.578125 88.929688 Z M 80.601562 116.667969 C 78.433594 116.667969 76.75 116.214844 75.554688 115.308594 C 74.355469 114.402344 73.523438 113.183594 73.0625 111.648438 C 72.59375 110.113281 72.359375 108.402344 72.359375 106.515625 L 72.359375 95.722656 C 72.359375 93.660156 72.59375 91.863281 73.0625 90.328125 C 73.523438 88.792969 74.355469 87.601562 75.554688 86.757812 C 76.75 85.917969 78.433594 85.496094 80.601562 85.496094 C 82.515625 85.496094 84.035156 85.851562 85.160156 86.554688 C 86.277344 87.257812 87.085938 88.265625 87.578125 89.574219 C 88.070312 90.882812 88.3125 92.453125 88.3125 94.289062 L 88.3125 96.703125 L 84.269531 96.703125 L 84.269531 94.554688 C 84.269531 93.421875 84.210938 92.421875 84.101562 91.550781 C 83.984375 90.683594 83.675781 90.011719 83.171875 89.535156 C 82.667969 89.058594 81.824219 88.816406 80.636719 88.816406 C 79.429688 88.816406 78.546875 89.074219 77.992188 89.589844 C 77.4375 90.105469 77.078125 90.839844 76.917969 91.785156 C 76.75 92.726562 76.667969 93.824219 76.667969 95.082031 L 76.667969 107.195312 C 76.667969 108.730469 76.792969 109.941406 77.046875 110.832031 C 77.296875 111.726562 77.714844 112.363281 78.292969 112.742188 C 78.875 113.117188 79.65625 113.308594 80.636719 113.308594 C 81.796875 113.308594 82.628906 113.046875 83.132812 112.53125 C 83.636719 112.015625 83.953125 111.308594 84.078125 110.402344 C 84.203125 109.496094 84.269531 108.441406 84.269531 107.234375 L 84.269531 104.96875 L 88.3125 104.96875 L 88.3125 107.234375 C 88.3125 109.09375 88.085938 110.734375 87.632812 112.152344 C 87.179688 113.578125 86.398438 114.683594 85.289062 115.472656 C 84.179688 116.269531 82.617188 116.667969 80.601562 116.667969 Z M 96.667969 116.328125 L 92.398438 116.328125 L 92.398438 85.761719 L 96.667969 85.761719 L 96.667969 98.96875 L 104.535156 98.96875 L 104.535156 85.761719 L 108.804688 85.761719 L 108.804688 116.328125 L 104.535156 116.328125 L 104.535156 102.023438 L 96.667969 102.023438 Z M 115.953125 116.328125 L 111.945312 116.328125 L 118.445312 85.761719 L 122.566406 85.761719 L 129.109375 116.328125 L 125.0625 116.328125 L 123.664062 108.628906 L 117.425781 108.628906 Z M 120.527344 91.800781 L 117.992188 105.570312 L 123.097656 105.570312 Z M 136.625 116.328125 L 132.429688 116.328125 L 132.429688 85.761719 L 136.625 85.761719 Z M 145.851562 116.328125 L 141.578125 116.328125 L 141.578125 85.761719 L 147.742188 85.761719 C 149.78125 85.761719 151.472656 86.03125 152.808594 86.570312 C 154.144531 87.113281 155.132812 87.980469 155.78125 89.171875 C 156.417969 90.371094 156.738281 91.9375 156.738281 93.875 C 156.738281 95.058594 156.613281 96.132812 156.363281 97.097656 C 156.109375 98.066406 155.707031 98.886719 155.152344 99.550781 C 154.597656 100.21875 153.867188 100.703125 152.960938 101.007812 L 157.308594 116.328125 L 153.1875 116.328125 L 149.179688 101.988281 L 145.851562 101.988281 Z M 145.851562 88.816406 L 145.851562 98.929688 L 147.476562 98.929688 C 148.6875 98.929688 149.667969 98.78125 150.425781 98.476562 C 151.183594 98.175781 151.738281 97.660156 152.089844 96.929688 C 152.441406 96.203125 152.617188 95.183594 152.617188 93.875 C 152.617188 92.089844 152.292969 90.796875 151.636719 90.003906 C 150.980469 89.214844 149.683594 88.816406 147.742188 88.816406 Z M 145.851562 88.816406 "/>
</g>
<g clip-path="url(#clip2)" clip-rule="nonzero">
<path style=" stroke:none;fill-rule:nonzero;fill:rgb(100%,100%,100%);fill-opacity:1;" d="M 195.765625 98.121094 L 200.324219 88.75 L 198.34375 81.070312 C 198.675781 80.933594 198.914062 80.609375 198.914062 80.226562 L 198.914062 77.082031 C 198.914062 76.582031 198.503906 76.175781 198 76.175781 C 197.652344 76.175781 197.355469 76.371094 197.199219 76.652344 L 197.152344 76.464844 L 197.128906 76.824219 C 197.105469 76.90625 197.089844 76.992188 197.089844 77.082031 L 197.089844 77.523438 L 197.007812 78.882812 L 197.007812 70.882812 C 197.007812 69.785156 196.117188 68.894531 195.019531 68.894531 C 193.917969 68.894531 193.027344 69.785156 193.027344 70.882812 L 193.027344 86.433594 C 193.027344 87.527344 193.917969 88.417969 195.019531 88.417969 C 196.117188 88.417969 197.007812 87.527344 197.007812 86.433594 L 197.007812 82.277344 L 198.632812 88.5625 L 194.039062 98.011719 L 170.898438 98.011719 C 169.617188 98.011719 168.578125 99.046875 168.578125 100.328125 C 168.578125 101.605469 169.617188 102.644531 170.898438 102.644531 L 179.832031 102.644531 L 179.832031 108.929688 L 181.15625 108.929688 L 181.15625 125.308594 L 179.832031 125.308594 L 179.832031 126.425781 C 179.085938 126.535156 178.425781 126.910156 177.960938 127.457031 L 172.789062 127.457031 C 172.234375 126.804688 171.410156 126.390625 170.484375 126.390625 C 168.820312 126.390625 167.464844 127.742188 167.464844 129.402344 L 167.464844 131.683594 L 168.164062 131.480469 C 168.441406 132.507812 169.371094 133.265625 170.484375 133.265625 C 171.816406 133.265625 172.898438 132.1875 172.898438 130.859375 C 172.898438 130.601562 172.847656 130.359375 172.773438 130.128906 L 173.503906 129.914062 L 173.503906 129.402344 C 173.503906 129.191406 173.480469 128.980469 173.441406 128.78125 L 177.3125 128.78125 C 177.269531 128.980469 177.246094 129.191406 177.246094 129.402344 L 177.246094 131.097656 L 177.875 131.097656 C 178 132.3125 179.015625 133.265625 180.265625 133.265625 C 181.515625 133.265625 182.53125 132.3125 182.652344 131.097656 L 183.285156 131.097656 L 183.285156 129.402344 C 183.285156 129.191406 183.261719 128.980469 183.21875 128.78125 L 190.074219 128.78125 C 190.03125 128.980469 190.007812 129.191406 190.007812 129.402344 L 190.007812 129.914062 L 190.742188 130.128906 C 190.667969 130.359375 190.617188 130.601562 190.617188 130.859375 C 190.617188 132.1875 191.695312 133.265625 193.027344 133.265625 C 194.144531 133.265625 195.074219 132.507812 195.351562 131.480469 L 196.046875 131.683594 L 196.046875 129.402344 C 196.046875 127.742188 194.695312 126.390625 193.027344 126.390625 C 192.105469 126.390625 191.28125 126.808594 190.726562 127.457031 L 186.128906 127.457031 L 186.128906 125.308594 L 184.800781 125.308594 L 184.800781 108.929688 L 186.128906 108.929688 L 186.128906 102.644531 L 195.101562 102.644531 C 196.382812 102.644531 197.421875 101.605469 197.421875 100.328125 C 197.421875 99.28125 196.722656 98.40625 195.765625 98.121094 Z M 195.765625 98.121094 "/>
</g>
<g clip-path="url(#clip3)" clip-rule="nonzero">
<path style="fill-rule:nonzero;fill:rgb(100%,100%,100%);fill-opacity:1;stroke-width:1;stroke-linecap:butt;stroke-linejoin:miter;stroke:rgb(100%,100%,100%);stroke-opacity:1;stroke-miterlimit:4;" d="M -0.00226691 78.243096 L -0.00226691 0.998279 L 244.431172 0.998279 L 244.431172 78.243096 L 240.994155 78.243096 L 240.994155 4.437326 L 3.434751 4.437326 L 3.434751 78.243096 L -0.00226691 78.243096 M -0.00226691 168.957515 L -0.00226691 246.202332 L 244.431172 246.202332 L 244.431172 168.957515 L 240.994155 168.957515 L 240.994155 242.763285 L 3.434751 242.763285 L 3.434751 168.957515 L -0.00226691 168.957515 " transform="matrix(0.819433,0,0,0.817814,0.0292013,-0.000000000000005412)"/>
</g>
</g>
</svg>
