<svg width="256" height="256" xmlns="http://www.w3.org/2000/svg">
 <defs>
  <clipPath id="clip1">
   <path id="svg_1" d="m33.998048,113.414118l147.71094,0l0,29.16406l-147.71094,0l0,-29.16406zm0,0"/>
  </clipPath>
  <clipPath id="clip2">
   <path id="svg_2" d="m191.251958,97.882868l30.58203,0l0,60.22656l-30.58203,0l0,-60.22656zm0,0"/>
  </clipPath>
  <clipPath id="clip3">
   <path id="svg_3" d="m33.998048,33.500058l187.83594,0l0,188.92187l-187.83594,0l0,-188.92187zm0,0"/>
  </clipPath>
 </defs>
 <g>
  <title>background</title>
  <rect fill="none" id="canvas_background" height="258" width="258" y="-1" x="-1"/>
 </g>
 <g>
  <title>Layer 1</title>
  <g id="surface1">
   <g id="svg_4" clip-rule="nonzero" clip-path="url(#clip1)">
    <path id="svg_5" fill-rule="nonzero" fill="rgb(100%,100%,100%)" d="m41.615238,142.261768l-3.05469,0l-4.69531,-28.59765l3.34375,0l3.08984,20.54687l3.875,-20.4414l2.84766,0l3.90625,20.54687l3.01953,-20.65234l3.27344,0l-4.625,28.59765l-2.91016,0l-4.01562,-21.18359l-4.05469,21.18359zm23.27734,0l-3.9414,0l0,-28.59765l3.9414,0l0,28.59765zm16.03125,0l-11.375,0l0,-28.59765l4.01954,0l0,25.73828l7.35546,0l0,2.85937zm9.30469,0l-6.57422,0l0,-28.59765l6.25391,0c2.13281,0 3.82031,0.32031 5.07031,0.96875c1.24219,0.64844 2.12891,1.61719 2.66406,2.91797c0.53125,1.29297 0.79297,2.90234 0.79297,4.83203l0,10.52344c0,2.02734 -0.26172,3.73046 -0.79297,5.11718c-0.53515,1.39063 -1.40234,2.44141 -2.59375,3.16016c-1.19921,0.71875 -2.80468,1.07812 -4.82031,1.07812zm-2.55859,-25.63281l0,22.77344l2.27344,0c1.46875,0 2.51171,-0.28125 3.1289,-0.84766c0.61719,-0.5625 0.99219,-1.39062 1.125,-2.47265c0.12891,-1.08203 0.19141,-2.39063 0.19141,-3.91797l0,-9.28516c0,-1.48047 -0.09766,-2.68359 -0.28516,-3.60156c-0.1914,-0.91797 -0.60547,-1.58984 -1.24219,-2.01172c-0.64062,-0.42578 -1.65234,-0.63672 -3.02343,-0.63672l-2.16797,0zm21.92969,25.95313c-2.03907,0 -3.6211,-0.42578 -4.7461,-1.27344c-1.125,-0.84766 -1.90625,-1.98828 -2.33984,-3.42188c-0.44141,-1.4375 -0.66016,-3.03906 -0.66016,-4.80468l0,-10.09766c0,-1.92969 0.21875,-3.60937 0.66016,-5.04687c0.43359,-1.4375 1.21484,-2.55079 2.33984,-3.33985c1.125,-0.78906 2.70703,-1.18359 4.7461,-1.18359c1.80078,0 3.22656,0.33594 4.28515,0.99219c1.05078,0.65625 1.8086,1.60156 2.27344,2.82421c0.46094,1.22657 0.69141,2.69532 0.69141,4.41407l0,2.25781l-3.80079,0l0,-2.01172c0,-1.05859 -0.05468,-1.99609 -0.16015,-2.80859c-0.10938,-0.8125 -0.39844,-1.44141 -0.875,-1.88672c-0.47266,-0.44531 -1.26563,-0.67188 -2.38281,-0.67188c-1.13282,0 -1.96094,0.23828 -2.48438,0.72266c-0.51953,0.48047 -0.85937,1.16797 -1.00781,2.05469c-0.16016,0.8789 -0.23828,1.90625 -0.23828,3.08203l0,11.33594c0,1.4375 0.11718,2.57031 0.35937,3.40234c0.23438,0.83594 0.625,1.43359 1.16797,1.78906c0.54688,0.34766 1.28125,0.52735 2.20313,0.52735c1.09375,0 1.875,-0.24219 2.34765,-0.72657c0.47266,-0.48047 0.76953,-1.14453 0.89063,-1.99218c0.11718,-0.84766 0.17968,-1.83594 0.17968,-2.96485l0,-2.11719l3.80079,0l0,2.11719c0,1.74219 -0.21485,3.27735 -0.64063,4.60156c-0.42578,1.33594 -1.16016,2.3711 -2.20312,3.10938c-1.04297,0.74219 -2.51172,1.11719 -4.40625,1.11719zm15.10156,-0.32032l-4.01172,0l0,-28.59765l4.01172,0l0,12.35547l7.39453,0l0,-12.35547l4.01562,0l0,28.59765l-4.01562,0l0,-13.38281l-7.39453,0l0,13.38281zm18.1289,0l-3.76562,0l6.10937,-28.59765l3.8711,0l6.15234,28.59765l-3.80469,0l-1.3125,-7.20312l-5.86718,0l-1.38282,7.20312zm4.30079,-22.94531l-2.38282,12.88281l4.79688,0l-2.41406,-12.88281zm15.1289,22.94531l-3.9414,0l0,-28.59765l3.9414,0l0,28.59765zm8.67578,0l-4.01953,0l0,-28.59765l5.79688,0c1.91406,0 3.5039,0.2539 4.76172,0.75781c1.2539,0.50781 2.18359,1.32031 2.79296,2.43359c0.59766,1.1211 0.89844,2.58594 0.89844,4.39844c0,1.10938 -0.11719,2.11328 -0.35156,3.01563c-0.23828,0.90625 -0.61719,1.67578 -1.13672,2.29687c-0.52344,0.625 -1.20703,1.07813 -2.05859,1.36328l4.08593,14.33203l-3.875,0l-3.76562,-13.41406l-3.12891,0l0,13.41406zm0,-25.73828l0,9.46094l1.52735,0c1.13672,0 2.05859,-0.13672 2.76953,-0.42187c0.71484,-0.28125 1.23437,-0.76563 1.5664,-1.44922c0.32813,-0.67969 0.4961,-1.63282 0.4961,-2.85938c0,-1.66797 -0.30469,-2.8789 -0.92188,-3.62109c-0.61718,-0.73828 -1.83593,-1.10938 -3.66015,-1.10938l-1.77735,0zm0,0"/>
   </g>
   <g id="svg_6" clip-rule="nonzero" clip-path="url(#clip2)">
    <path id="svg_7" fill-rule="nonzero" fill="rgb(100%,100%,100%)" d="m217.853518,125.226618l4.28516,-8.76563l-1.86328,-7.1875c0.3125,-0.125 0.53906,-0.42968 0.53906,-0.78906l0,-2.94141c0,-0.46875 -0.38672,-0.84765 -0.85938,-0.84765c-0.32812,0 -0.60546,0.18359 -0.7539,0.44531l-0.04297,-0.17578l-0.02344,0.33594c-0.02344,0.07812 -0.03515,0.16015 -0.03515,0.24218l0,0.41407l-0.07813,1.26953l0,-7.48438c0,-1.02734 -0.83594,-1.85937 -1.87109,-1.85937c-1.03516,0 -1.8711,0.83203 -1.8711,1.85937l0,14.55078c0,1.02344 0.83594,1.85547 1.8711,1.85547c1.03515,0 1.87109,-0.83203 1.87109,-1.85547l0,-3.89062l1.52734,5.88281l-4.3164,8.83985l-21.75391,0c-1.20312,0 -2.17969,0.96875 -2.17969,2.16796c0,1.19532 0.97657,2.16797 2.17969,2.16797l8.39844,0l0,5.87891l1.24219,0l0,15.32812l-1.24219,0l0,1.04297c-0.70313,0.10157 -1.32422,0.45313 -1.75781,0.96485l-4.86328,0c-0.52344,-0.60938 -1.29688,-0.9961 -2.16797,-0.9961c-1.5625,0 -2.83594,1.26172 -2.83594,2.81641l0,2.13281l0.65625,-0.1875c0.26172,0.96094 1.13281,1.66797 2.17969,1.66797c1.2539,0 2.26953,-1.00781 2.26953,-2.25c0,-0.24219 -0.04688,-0.46875 -0.11719,-0.68359l0.6875,-0.19922l0,-0.48047c0,-0.19531 -0.02344,-0.39453 -0.05859,-0.58203l3.63672,0c-0.03907,0.1875 -0.0586,0.38672 -0.0586,0.58203l0,1.58594l0.58985,0c0.11718,1.13672 1.07031,2.02734 2.24609,2.02734c1.17578,0 2.12891,-0.89062 2.24219,-2.02734l0.59765,0l0,-1.58594c0,-0.19531 -0.02343,-0.39453 -0.0625,-0.58203l6.44141,0c-0.03906,0.1875 -0.0625,0.38672 -0.0625,0.58203l0,0.48047l0.69141,0.19922c-0.07032,0.21484 -0.11719,0.4414 -0.11719,0.68359c0,1.24219 1.01562,2.25 2.26562,2.25c1.05078,0 1.92578,-0.70703 2.1836,-1.66797l0.65625,0.1875l0,-2.13281c0,-1.55469 -1.27344,-2.81641 -2.83985,-2.81641c-0.86718,0 -1.64062,0.39063 -2.16406,0.9961l-4.32031,0l0,-2.00782l-1.25,0l0,-15.32812l1.25,0l0,-5.87891l8.43359,0c1.20703,0 2.1836,-0.97265 2.1836,-2.16797c0,-0.98046 -0.66016,-1.79687 -1.5586,-2.0664zm0,0"/>
   </g>
   <g id="svg_8" clip-rule="nonzero" clip-path="url(#clip3)">
    <path id="svg_9" fill-rule="nonzero" fill="rgb(100%,100%,100%)" stroke="rgb(100%,100%,100%)" stroke-miterlimit="4" d="m33.86133,93.29299l0,-59.105435l188.277341,0l0,59.105435l-2.64844,0l0,-56.47653l-182.984367,0l0,56.47653l-2.644535,0m0,69.414028l0,59.105435l188.277341,0l0,-59.105435l-2.64844,0l0,56.472628l-182.984367,0l0,-56.472628l-2.644535,0"/>
   </g>
  </g>
 </g>
</svg>